<?xml version="1.0" encoding="UTF-8"?>
<svg width="500" height="500" version="1.1" viewBox="0 0 500 500" xmlns="http://www.w3.org/2000/svg">
 <rect width="500" height="500" fill="#f3f4f6"/>
 <g transform="translate(150,200)">
  <path d="m100 0c-27.614 0-50 22.386-50 50s22.386 50 50 50 50-22.386 50-50-22.386-50-50-50zm0 20c16.569 0 30 13.431 30 30s-13.431 30-30 30-30-13.431-30-30 13.431-30 30-30z" fill="#9ca3af"/>
  <path d="m-50 60 200-0.0016c27.614 0 50 22.386 50 50v20c0 5.5228-4.4772 10-10 10h-280c-5.5228 0-10-4.4772-10-10v-20c0-27.614 22.386-50 50-50z" fill="#9ca3af"/>
 </g>
</svg> 