<svg width="124" height="33" viewBox="0 0 124 33" fill="none" xmlns="http://www.w3.org/2000/svg">
  <path d="M12.877 12.6719C12.877 11.8594 13.522 11.5156 14.627 11.5156C16.252 11.5156 18.392 12.0312 20.017 12.9375V7.26562C18.205 6.54688 16.439 6.23438 14.627 6.23438C9.533 6.23438 6.189 8.84375 6.189 13.0625C6.189 19.5312 15.08 18.3906 15.08 21.5C15.08 22.5469 14.205 22.8906 12.97 22.8906C11.158 22.8906 8.783 22.1719 6.97 21.125V26.8438C9.017 27.7969 11.111 28.25 12.97 28.25C18.158 28.25 21.83 25.75 21.83 21.4531C21.783 14.3906 12.877 15.8281 12.877 12.6719ZM31.924 14.2969L31.018 9.59375C30.94 9.17188 30.627 8.98438 30.174 8.98438H26.315L26.268 9.3125C29.002 10.0781 31.439 11.7969 31.924 14.2969ZM22.752 25.9844H28.987L31.127 10.75H24.892L22.752 25.9844ZM36.877 25.9844H42.736L44.877 10.75H39.064L36.877 25.9844ZM41.252 8.28125C42.83 8.28125 44.08 7.03125 44.08 5.50781C44.08 4.17969 43.127 3.21094 41.783 3.21094C40.158 3.21094 38.908 4.46094 38.908 5.98438C38.908 7.35938 39.908 8.28125 41.252 8.28125ZM51.143 17.75C51.143 15.1875 52.44 13.4219 54.346 13.4219C55.69 13.4219 56.44 14.25 56.44 15.6719C56.44 16.8594 55.94 17.7812 55.08 18.2031L59.315 19.625C59.862 18.4844 60.143 17.0938 60.143 15.4688C60.143 12.375 58.284 10.375 54.955 10.375C49.862 10.375 46.049 14.4219 46.049 20.2812C46.049 24.0781 48.518 26.3594 52.284 26.3594C54.049 26.3594 56.143 25.8438 58.049 24.7344V20.0469C56.143 21.1094 54.455 21.5312 53.143 21.5312C51.705 21.5312 51.143 20.375 51.143 17.75ZM72.908 10.75H70.767L71.252 8.98438H65.97L65.486 10.75H63.783L62.908 15.0625H64.627L63.08 25.9844H69.267L70.814 15.0625H73.033L74.111 10.75H72.908ZM81.58 10.375C79.33 10.375 77.455 11.3438 76.111 13.0625L76.252 10.75H70.158L67.017 32.7031H73.252L74.705 23.9844C75.33 24.9844 76.439 25.4531 77.877 25.4531C81.736 25.4531 85.158 22.2031 85.158 15.8125C85.158 12.5156 83.861 10.375 81.58 10.375ZM79.064 20.6562C78.33 20.6562 77.736 20.2344 77.158 19.4688L78.002 14.4219C78.58 13.6094 79.158 13.2344 79.783 13.2344C80.677 13.2344 81.127 14.1094 81.127 15.8125C81.127 18.7969 80.33 20.6562 79.064 20.6562ZM93.908 10.75L91.767 25.9844H97.908L100.049 10.75H93.908ZM96.424 8.28125C98.002 8.28125 99.252 7.03125 99.252 5.50781C99.252 4.17969 98.299 3.21094 96.955 3.21094C95.33 3.21094 94.08 4.46094 94.08 5.98438C94.08 7.35938 95.08 8.28125 96.424 8.28125ZM111.267 9.875C110.252 10 108.705 10.1719 106.611 10.4688L106.564 10.7031C108.908 10.9375 109.283 12.0781 108.783 14.4688L105.736 25.9844H111.924L115.127 13.8906C115.799 10.9844 114.205 9.60938 111.267 9.875ZM123.283 8.98438H117.049L117.861 4.51562H111.627L108.486 25.9844H114.721L116.049 17.6094H122.283L123.283 8.98438Z" fill="#635BFF"/>
</svg> 